<svg id="fox" xmlns="http://www.w3.org/2000/svg" width="64" height="64" viewBox="0 0 64 64">
  <path fill="#f26f49" d="M20 18H6V4a14 14 0 0 1 14 14z"/>
  <path fill="#f28649" d="M19.42 18H6V8a14 14 0 0 1 9.9 4.1 14.13 14.13 0 0 1 3.52 5.9z"/>
  <path fill="none" stroke="#001c63" stroke-linecap="round" stroke-linejoin="round" stroke-width="2" d="M6 4a14 14 0 0 1 14 14H6V4z"/>
  <path fill="#f26f49" d="M42 4v14H28A14 14 0 0 1 42 4z"/>
  <path fill="#f28649" d="M42 8v10H28.58A14 14 0 0 1 42 8z"/>
  <path fill="none" stroke="#001c63" stroke-linecap="round" stroke-linejoin="round" stroke-width="2" d="M42 18H28A14 14 0 0 1 42 4v14z"/>
  <path fill="#f26f49" d="M23 21h7.47A16.53 16.53 0 0 1 47 37.53V45H23V21z"/>
  <path fill="none" stroke="#001c63" stroke-linecap="round" stroke-linejoin="round" stroke-width="2" d="M23 21h7.47A16.53 16.53 0 0 1 47 37.53V45H23V21z"/>
  <path fill="#f27449" d="M57 40.42a28 28 0 0 1-28.93 20.52 28 28 0 0 1-15.49-49.85A27.47 27.47 0 0 1 16 8.76V38h21l.44.54a12.54 12.54 0 0 0 18.35 1.14.72.72 0 0 1 .5-.21.75.75 0 0 1 .71.95z"/>
  <path fill="#f28649" d="M57 40.42a27.77 27.77 0 0 1-5.08 10 28 28 0 0 1-39.34-39.33A27.47 27.47 0 0 1 16 8.76V38h21l.44.54A12.14 12.14 0 0 0 40 40.88a12.54 12.54 0 0 0 15.82-1.2.72.72 0 0 1 .5-.21.75.75 0 0 1 .68.95z"/>
  <path fill="#f27449" d="M40 40.88A19 19 0 0 1 27 47h-1c-4.23 0-14.77-10.14-15-14v-1a18.87 18.87 0 0 1 5-12.83V38h21l.44.54A12.14 12.14 0 0 0 40 40.88z"/>
  <path fill="none" stroke="#001c63" stroke-linecap="round" stroke-linejoin="round" stroke-width="2" d="M55.07 45.48A28 28 0 1 1 16 8.76V38h21l.32.37a11.35 11.35 0 0 0 13.54 2.84 3.17 3.17 0 0 1 4.21 4.27z"/>
  <path fill="#f26f49" d="M43 24v1a19 19 0 0 1-18 18h-1A19 19 0 0 1 5 25v-1a19 19 0 0 1 38 0z"/>
  <path fill="#f28649" d="M43 24v1a19 19 0 0 1-18 18h-1a18.9 18.9 0 0 1-11.28-3.71A18.93 18.93 0 0 1 9 29v-1a19 19 0 0 1 30.28-15.28A18.86 18.86 0 0 1 43 24z"/>
  <path fill="#fff" stroke="#001c63" stroke-linecap="round" stroke-linejoin="round" stroke-width="2" d="M62 49s-4.12-6.87-11 2l-8-2c-.53-.15 1-7 1-7s5.37-2 9-2c3.88 0 9 2.38 9 9z"/>
  <g fill="#fff">
    <path d="M42.9 26A19 19 0 0 1 25 43v-.51C25.37 27 41.48 26.06 42.9 26z"/>
    <path d="M5.1 26c1.53.06 19.51 1 19.91 16.47v.5h-1A19 19 0 0 1 5.1 26z"/>
  </g>
  <g fill="none" stroke="#001c63" stroke-linecap="round" stroke-linejoin="round" stroke-width="2">
    <path d="M5.1 26c0-.32-.06-.65-.08-1s0-.68 0-1a19 19 0 0 1 38 0v1c0 .32 0 .66-.08 1A19 19 0 0 1 25 43h-1A19 19 0 0 1 5.1 26z"/>
    <path d="M5 26h.1c1.53.06 19.51 1 19.91 16.47v.51M43 26h-.1c-1.42 0-17.53 1-17.89 16.46v.5"/>
  </g>
  <circle cx="25" cy="45.5" r="2" fill="#001c63"/>
  <path fill="#001c63" d="M16 33a2 2 0 0 0-2 2h4a2 2 0 0 0-2-2zM33 33a2 2 0 0 0-2 2h4a2 2 0 0 0-2-2z"/>
  <path fill="none" stroke="#fff" stroke-linecap="round" stroke-linejoin="round" stroke-width="2" d="M12 17a16.68 16.68 0 0 1 8-6.33"/>
  <circle cx="23" cy="10" r="1" fill="#fff"/>
</svg>
