<svg id="giraffe" xmlns="http://www.w3.org/2000/svg" width="64" height="64" viewBox="0 0 64 64">
  <path fill="none" stroke="#001c63" stroke-linecap="round" stroke-linejoin="round" stroke-width="2" d="M10 43a4 4 0 0 0-4 4v6a3 3 0 0 1-3 3"/>
  <path fill="#f7d821" d="M54.41 16.31a2 2 0 0 1-1.25.45 2 2 0 0 1-1.44-.63l-2.18-2.34-.59.37a7.67 7.67 0 0 1-6.28.84L39 24l-3.6 9-.4 1v25h-4V43.53l-4.08 4.3-.06.06A14 14 0 0 1 15 52.12V59h-4v-5.16l-.14-.5a21.82 21.82 0 0 1-.71-3.49 21 21 0 0 1-.15-2.51v-1.1a9 9 0 0 1 .75-3.6 9.14 9.14 0 0 1 2.77-3.53l4.71-2.92L25 32l6.77-13.13 3-5.87 2.45-4.75L35 4a6 6 0 0 1 6 2h6.82l6.79 7.47a2 2 0 0 1-.2 2.84z"/>
  <path fill="#f7ca21" d="M47.78 6c-.46 1.93-1.68 6-3.78 6a6.7 6.7 0 0 1-4-1L28.12 35 22 37c-6.12 2-10 11-10 11l-1.85 1.85a21 21 0 0 1-.15-2.51v-1.1a9 9 0 0 1 .75-3.6 9.14 9.14 0 0 1 2.77-3.53l4.71-2.92L25 32l6.77-13.13 3-5.87 2.45-4.75L35 4a6 6 0 0 1 6 2z"/>
  <path fill="none" stroke="#001c63" stroke-linecap="round" stroke-linejoin="round" stroke-width="2" d="M54.41 16.31a2 2 0 0 1-1.25.45 2 2 0 0 1-1.44-.63l-2.18-2.34-.59.37a7.67 7.67 0 0 1-6.28.84L39 24l-3.6 9-.4 1v25h-4V43.53l-4.08 4.3-.06.06A14 14 0 0 1 15 52.12V59h-4v-5.16l-.14-.5a21.39 21.39 0 0 1-.86-6v-1.1a9 9 0 0 1 .75-3.6 9.14 9.14 0 0 1 2.77-3.53l4.71-2.92L25 32l6.77-13.13 3-5.87 2.45-4.75L35 4a6 6 0 0 1 6 2h6.82l6.79 7.47a2 2 0 0 1-.2 2.84z"/>
  <path fill="#f7aa21" d="M41 5V2s2.94 1.44 3 4h-3z"/>
  <path fill="none" stroke="#001c63" stroke-linecap="round" stroke-linejoin="round" stroke-width="2" d="M41 5V2s2.94 1.44 3 4h-3z"/>
  <path fill="#ce6b29" d="M39.04 24l-3.64 9h-.81l-2.4-4.5 2.4-4.5h4.45z"/>
  <path fill="none" stroke="#001c63" stroke-linecap="round" stroke-linejoin="round" stroke-width="2" d="M39.04 24l-3.64 9h-.81l-2.4-4.5 2.4-4.5h4.45z"/>
  <path fill="#ce6b29" d="M26.92 47.83l-.06.06A13.94 13.94 0 0 1 19.5 52l-1.31-2.5 2.4-4.5h4.82z"/>
  <path fill="none" stroke="#001c63" stroke-linecap="round" stroke-linejoin="round" stroke-width="2" d="M26.92 47.83l-.06.06A13.94 13.94 0 0 1 19.5 52l-1.31-2.5 2.4-4.5h4.82z"/>
  <path fill="#ce6b29" d="M36.81 16l-1.65 3h-3.32l-.07-.13L34.8 13h.36l1.65 3z"/>
  <path fill="none" stroke="#001c63" stroke-linecap="round" stroke-linejoin="round" stroke-width="2" d="M36.81 16l-1.65 3h-3.32l-.07-.13L34.8 13h.36l1.65 3z"/>
  <path fill="#ce6b29" d="M19.22 38l-2.75 5H11l-.2-.36a9.14 9.14 0 0 1 2.77-3.53l4.71-2.92z"/>
  <path fill="none" stroke="#001c63" stroke-linecap="round" stroke-linejoin="round" stroke-width="2" d="M19.22 38l-2.75 5H11l-.2-.36a9.14 9.14 0 0 1 2.77-3.53l4.71-2.92z"/>
  <path fill="#ce6b29" d="M25.34 40l-1.15-2 1.15-2h2.32l1.15 2-1.15 2h-2.32z"/>
  <path fill="none" stroke="#001c63" stroke-linecap="round" stroke-linejoin="round" stroke-width="2" d="M25.34 40l-1.15-2 1.15-2h2.32l1.15 2-1.15 2h-2.32z"/>
  <path fill="#ce6b29" d="M35 45v9h-1.16l-2.65-4.5 2.65-4.5H35z"/>
  <path fill="none" stroke="#001c63" stroke-linecap="round" stroke-linejoin="round" stroke-width="2" d="M35 45v9h-1.16l-2.65-4.5 2.65-4.5H35z"/>
  <path fill="#d3671e" stroke="#001c63" stroke-linecap="round" stroke-linejoin="round" stroke-width="2" d="M11 59h4v3h-4zM31 59h4v3h-4z" data-name="&lt;Rectangle&gt;"/>
  <path fill="none" stroke="#001c63" stroke-linecap="round" stroke-linejoin="round" stroke-width="2" d="M42 10a3 3 0 0 0 3 0"/>
</svg>
