<svg id="snow" xmlns="http://www.w3.org/2000/svg" width="75" height="75" viewBox="0 0 75 75">
  <path fill="#fff" d="M56.278 69.49H18.752a.748.748 0 0 1-.727-.937l3.188-12.355a.751.751 0 0 1 .727-.562h31.138c.342 0 .641.231.727.562l3.141 12.196a.75.75 0 0 1-.668 1.096zm-36.558-1.5h35.571l-2.795-10.855H22.521L19.72 67.99z"/>
  <path fill="#fff" d="M53.077 57.377a.738.738 0 0 1-.552-.242H22.491a.745.745 0 0 1-.975.111A28.34 28.34 0 0 1 9.157 33.853C9.156 18.225 21.871 5.51 37.5 5.51s28.344 12.715 28.344 28.344a28.354 28.354 0 0 1-12.343 23.393.756.756 0 0 1-.424.13zM37.5 7.01c-14.802 0-26.844 12.042-26.844 26.844A26.838 26.838 0 0 0 21.84 55.642a.663.663 0 0 1 .1-.007h31.138a.66.66 0 0 1 .099.007 26.854 26.854 0 0 0 11.168-21.788C64.344 19.052 52.302 7.01 37.5 7.01z"/>
  <path fill="#fff" d="M20.68 25.783h-.758a.75.75 0 0 1-.648-.373l-.382-.656a.748.748 0 0 1 0-.754l.382-.656a.752.752 0 0 1 .648-.373h.758c.27 0 .519.145.651.378l.374.656a.747.747 0 0 1 0 .743l-.374.656a.748.748 0 0 1-.651.379zM60.898 34.98h-.758a.75.75 0 0 1-.649-.374l-.38-.656a.754.754 0 0 1 0-.752l.38-.656a.753.753 0 0 1 .649-.374h.758c.27 0 .518.144.651.378l.375.656a.748.748 0 0 1 0 .744l-.375.656a.747.747 0 0 1-.651.378zM16.155 35.176a.746.746 0 0 1-.375-.101l-.655-.379a.75.75 0 0 1-.375-.649v-.756a.75.75 0 0 1 .375-.649l.655-.379a.75.75 0 0 1 .75 0l.655.379a.75.75 0 0 1 .375.649v.756a.75.75 0 0 1-.375.649l-.655.379a.746.746 0 0 1-.375.101zM58.078 28.553a.746.746 0 0 1-.374-.1l-.656-.377a.752.752 0 0 1-.376-.65v-.758c0-.268.143-.516.375-.649l.656-.379a.75.75 0 0 1 .75 0l.656.379a.75.75 0 0 1 .375.649v.758a.75.75 0 0 1-.376.65l-.656.377a.746.746 0 0 1-.374.1zM25.083 15.271c-1.29 0-1.29 2 0 2s1.29-2 0-2zM43.666 10.771c-1.29 0-1.29 2 0 2s1.29-2 0-2zM53.146 19.396c-1.29 0-1.29 2 0 2s1.29-2 0-2zM34.771 10.791c-1.29 0-1.29 2 0 2s1.29-2 0-2zM21.083 17.479c-1.29 0-1.29 2 0 2s1.29-2 0-2zM52.188 22.833c-1.29 0-1.29 2 0 2s1.29-2 0-2zM44.916 16.25c-1.29 0-1.29 2 0 2s1.29-2 0-2zM49.75 13.875c-1.29 0-1.29 2 0 2s1.29-2 0-2zM31.458 14.562c-1.29 0-1.29 2 0 2s1.29-2 0-2zM38.924 15.645a.83.83 0 0 1-.831-.828.83.83 0 0 1 1.66 0 .83.83 0 0 1-.829.828zm0-1.5a.672.672 0 0 0 0 1.342.67.67 0 0 0 0-1.342z"/>
  <g>
    <path fill="#fff" d="M26.683 66.957a.75.75 0 0 1-.75-.75 4.666 4.666 0 0 0-4.66-4.66.75.75 0 0 1 0-1.5 6.168 6.168 0 0 1 6.16 6.16.75.75 0 0 1-.75.75z"/>
    <path fill="#fff" d="M26.683 66.957a.75.75 0 0 1-.75-.75 6.167 6.167 0 0 1 6.159-6.16.75.75 0 0 1 0 1.5 4.665 4.665 0 0 0-4.659 4.66.75.75 0 0 1-.75.75z"/>
    <path fill="#fff" d="M26.683 66.957a1.307 1.307 0 0 1 0-2.612 1.306 1.306 0 0 1 0 2.612zm0-1.5a.198.198 0 0 0-.196.193c0 .214.39.216.391 0a.198.198 0 0 0-.195-.193z"/>
    <g>
      <path fill="#fff" d="M37.501 66.957a.75.75 0 0 1-.75-.75c0-2.569-2.09-4.66-4.659-4.66a.75.75 0 0 1 0-1.5 6.167 6.167 0 0 1 6.159 6.16.75.75 0 0 1-.75.75z"/>
      <path fill="#fff" d="M37.501 66.957a.75.75 0 0 1-.75-.75 6.166 6.166 0 0 1 6.157-6.16.75.75 0 0 1 0 1.5 4.664 4.664 0 0 0-4.657 4.66.75.75 0 0 1-.75.75z"/>
      <g>
        <path fill="#fff" d="M37.501 66.957a1.309 1.309 0 0 1-1.308-1.307 1.308 1.308 0 0 1 2.614 0c0 .721-.586 1.307-1.306 1.307zm0-1.5a.194.194 0 0 0-.194.193c0 .215.387.216.387 0a.194.194 0 0 0-.193-.193z"/>
      </g>
    </g>
    <g>
      <path fill="#fff" d="M48.317 66.957a.75.75 0 0 1-.75-.75c0-2.569-2.09-4.66-4.659-4.66a.75.75 0 0 1 0-1.5 6.167 6.167 0 0 1 6.159 6.16.75.75 0 0 1-.75.75z"/>
      <path fill="#fff" d="M48.317 66.957a.75.75 0 0 1-.75-.75 6.168 6.168 0 0 1 6.16-6.16.75.75 0 0 1 0 1.5 4.666 4.666 0 0 0-4.66 4.66.75.75 0 0 1-.75.75z"/>
      <g>
        <path fill="#fff" d="M48.317 66.957a1.307 1.307 0 0 1 0-2.612 1.307 1.307 0 0 1 0 2.612zm0-1.5a.197.197 0 0 0-.194.193c0 .216.391.214.391 0a.198.198 0 0 0-.197-.193z"/>
      </g>
    </g>
  </g>
  <g>
    <path fill="#fff" d="M54.021 47.876l-7.106-10.003h3.838a.75.75 0 0 0 .509-1.302l-7.03-9.89H46.488a.75.75 0 0 0 .508-1.302L39.83 15.306c.506-.556.273-1.703-.705-1.703-.169 0-.312.037-.438.096l-.577-.812c-.282-.398-.942-.395-1.223 0L27.93 25.496a.75.75 0 0 0 .611 1.185h2.229l-7.108 10.007a.75.75 0 0 0 .611 1.185h3.819l-7.114 10.003a.75.75 0 0 0 .611 1.184h31.818c.28 0 .538-.156.666-.406a.745.745 0 0 0-.052-.778zm-30.976-.315l7.114-10.003a.75.75 0 0 0-.611-1.184h-3.82l7.108-10.007a.75.75 0 0 0-.611-1.185h-2.229L37.5 14.617l7.514 10.565h-2.235a.75.75 0 0 0-.611 1.184l7.113 10.007h-3.818a.75.75 0 0 0-.611 1.185l7.106 10.003H23.045z"/>
    <path fill="#fff" d="M40.827 57.135a.067.067 0 0 1-.02 0h-6.606a.75.75 0 0 1-.745-.842l1-8.074a.749.749 0 0 1 .744-.658h4.606c.379 0 .698.282.744.658l.979 7.905a.747.747 0 0 1-.702 1.011zm-5.777-1.5h4.909l-.814-6.574h-3.28l-.815 6.574zM29.549 37.873a.75.75 0 0 1-.379-1.398l14.968-8.75a.75.75 0 1 1 .757 1.295l-14.968 8.75a.745.745 0 0 1-.378.103zM32.156 26.475a.75.75 0 0 1-.379-1.398l9.401-5.498a.75.75 0 1 1 .757 1.295l-9.401 5.498a.755.755 0 0 1-.378.103zM27.953 49.061a.75.75 0 0 1-.379-1.397l17.806-10.41a.75.75 0 1 1 .757 1.295l-17.806 10.41a.764.764 0 0 1-.378.102zM44.375 42.896c-1.29 0-1.29 2 0 2s1.29-2 0-2zM37.65 27.27c.239-.59-.049-1.416-.88-1.416-1.29 0-1.29 2 0 2a.902.902 0 0 0 .877-.579l.003-.005zM41.542 34.417c-1.29 0-1.29 2 0 2s1.29-2 0-2zM35.25 36.854c-1.29 0-1.29 2 0 2s1.29-2 0-2zM29.5 42.104c-1.29 0-1.29 2 0 2s1.29-2 0-2z"/>
  </g>
</svg>
