<svg id="stag" xmlns="http://www.w3.org/2000/svg" width="512" height="512" viewBox="0 0 512 512">
  <path d="M155.962 128.453c-.033.034-.068.065-.102.1a30.657 30.657 0 0 0-2.983 3.591 57.078 57.078 0 0 0-6.499-3.447c-16.503-7.435-35.931 1.739-36.749 2.134l-4.919 2.368 1.483 5.254c.247.875 6.236 21.509 22.737 28.944 6.817 3.075 13.971 4.732 20.339 4.732.244 0 .482-.011.724-.017l2.128 17.955c.148 3.648.927 7.434 2.248 11.118v81.716c0 7.779.913 14.571 2.784 20.745 2.347 7.836 6.251 14.666 11.86 20.845l21.719 74.22-5.224 94.18h-3.906c-3.559 0-6.663 2.743-6.769 6.301a6.499 6.499 0 0 0 6.497 6.699h37.425l10.655-95.418V400.01l41.638 92.881h-3.915c-3.56 0-6.663 2.743-6.77 6.301a6.498 6.498 0 0 0 6.496 6.699h48.413l-31.333-71.188-.307-.63c-8.56-15.655-10.124-34.458-10.409-40.993 4.939-5.984 10.685-14.97 13.885-26.877 9.819 2.65 24.575 5.698 47.581 5.698 7.745 0 15.447-.708 23.02-2.08 3.176 12.332 9.004 21.777 17.351 28.095 6.856 5.194 10.882 12.824 11.131 21.039l-19.878 73.936h-6.19c-3.56 0-6.663 2.743-6.77 6.301a6.5 6.5 0 0 0 6.497 6.699h34.976l16.324-55.982v42.979h-3.534c-3.559 0-6.662 2.742-6.77 6.3a6.5 6.5 0 0 0 6.497 6.7h36.963v-64.299l6.059-50.957c1.439-9.982-2.673-14.398-5.257-16.145-6.401-4.326-9.609-11.79-9.793-22.795l7.613-23.246 2.056-10.89a65.439 65.439 0 0 0 .427-21.782v-33.556c0-18.616-8.963-36.506-24.592-49.084-2.967-2.387-7.132-2.853-10.606-1.188-3.286 1.574-5.327 4.743-5.327 8.27v24.458a65.374 65.374 0 0 0-24.141-4.611h-20.621c-3.559 0-6.663 2.743-6.77 6.3a6.5 6.5 0 0 0 6.497 6.7h20.124c15.035 0 29.562 6.1 39.633 17.263 11.039 12.238 15.639 28.722 12.601 44.818l-1.897 10.059-8.005 24.438v1.038c0 15.803 5.105 27.354 15.179 34.342.146.473.317 1.689.005 3.813l-6.138 51.602-.046.382v52.069h-7.156v-81.586c0-2.003-.145-3.994-.43-5.928l-.078-.52c-1.668-10.633-7.359-20.211-16.029-26.972-6.033-4.696-10.811-13.55-13.815-25.603l-.086-.326c-.995-4.048-1.781-8.432-2.34-13.047a114.46 114.46 0 0 1-.664-7.359 8.537 8.537 0 0 0-12.186-7.187c-11.264 5.35-23.191 8.063-35.452 8.063-20.158 0-36.402-2.954-49.684-9.04a100.984 100.984 0 0 1-7.52-3.803 8.501 8.501 0 0 0-9.604.888 8.475 8.475 0 0 0-2.668 9.234c1.891 5.75 3.853 14.854 2.464 25.615-.07.572-.159 1.146-.245 1.682l-.027.181c-2.318 14.121-9.468 24.062-13.522 28.729a8.571 8.571 0 0 0-2.094 5.623l.002.131c.129 6.453 1.375 28.964 11.937 48.431l23.238 52.798h-10.051l-57.281-127.772c-1.173-4.707-3.102-9.257-5.692-13.469l-16.767-39.745c-1.664-3.943-4.225-7.43-7.412-10.287a26.043 26.043 0 0 1-8.653-19.378v-12.022c0-3.559-2.743-6.662-6.3-6.77a6.502 6.502 0 0 0-6.7 6.498v11.217c0 11.464 4.526 22.656 13.11 30.255a15.496 15.496 0 0 1 3.978 5.54l6.104 14.47c-8.993-5.058-15.443-9.76-20.16-14.693-4.774-4.979-8.017-10.481-9.921-16.837-1.501-4.953-2.231-10.512-2.231-16.995v-63.41c4.784 3.647 10.177 5.644 15.62 5.644h8.094c9.172 0 17.239-5.369 22.829-12.926l4.43 11.713c6.634 17.538 23.429 29.141 42.178 29.141h62.523c3.559 0 6.662-2.743 6.77-6.3a6.5 6.5 0 0 0-6.497-6.7h-62.796c-13.263 0-25.327-8.335-30.019-20.741l-6.657-17.599c-1.418-3.75-2.038-7.752-1.889-11.759l.002-.059 2.028-17.792c.231.005.459.016.692.016 6.367 0 13.522-1.657 20.337-4.731 16.5-7.435 22.5-28.067 22.749-28.941l1.486-5.258-4.924-2.368c-.818-.395-20.255-9.566-36.758-2.133a57.55 57.55 0 0 0-6.552 3.484 30.391 30.391 0 0 0-2.896-3.508c52.771-13.191 92.507-59.654 95.517-115.716.2-3.721-2.77-6.85-6.495-6.85-3.427 0-6.301 2.658-6.482 6.08-1.972 37.118-21.892 69.549-51.213 88.767 9.325-12.713 14.85-28.381 14.85-45.321v-14.59a6.498 6.498 0 0 0-6.498-6.498h-.005a6.497 6.497 0 0 0-6.497 6.498v14.587c0 23.498-12.778 44.054-31.741 55.126a34.372 34.372 0 0 0 2.502-12.889V76.304a6.498 6.498 0 0 0-6.498-6.498h-.005a6.498 6.498 0 0 0-6.498 6.498v21.038c0 11.678-9.063 21.637-20.733 22.078-12.268.464-22.396-9.382-22.396-21.549V76.304a6.498 6.498 0 0 0-6.498-6.498h-.005a6.498 6.498 0 0 0-6.498 6.498v21.567c0 4.555.894 8.903 2.502 12.889-18.963-11.072-31.74-31.629-31.74-55.126V41.046a6.498 6.498 0 0 0-6.498-6.498h-.005a6.498 6.498 0 0 0-6.498 6.498v14.587c0 16.94 5.524 32.608 14.85 45.322-29.323-19.218-49.243-51.649-51.215-88.767-.182-3.421-3.056-6.08-6.482-6.08-3.725 0-6.695 3.127-6.496 6.848 2.992 55.744 42.292 102.005 94.615 115.497zm-21.689 27.093c-6.705-3.021-11.025-10.039-13.375-15.048 5.315-1.56 13.436-2.969 20.145.054a43.335 43.335 0 0 1 6.779 3.803 30.325 30.325 0 0 0-.407 6.006l1.038 8.758c-4.349-.132-9.306-1.375-14.18-3.573zM432.41 265.423c-.442-.57-.874-1.148-1.337-1.707a65.543 65.543 0 0 0-13.188-12.092v-23.617c9.304 9.569 14.525 21.723 14.525 34.212v3.204zm-49.183 97.056c3.815 11.522 9.311 20.144 16.396 25.659 5.683 4.432 9.521 10.568 10.925 17.394l-25.473 87.36h-5.301l19.429-72.266v-.857c0-12.629-5.938-24.369-16.296-32.215-5.887-4.456-10.093-11.414-12.531-20.692a140.618 140.618 0 0 0 12.851-4.383zm-40.158-17.056c12.101 0 23.909-2.275 35.187-6.77a129.712 129.712 0 0 0 1.687 11.133c-4.051 1.647-8.694 3.35-14.065 4.847a115.643 115.643 0 0 1-31.188 4.27c-22.318 0-36.264-3.053-45.375-5.575a71.487 71.487 0 0 0-.91-17.928c14.911 6.743 32.8 10.023 54.664 10.023zm-147.398-1.356l3.577 2.273a38.515 38.515 0 0 1 8.487 7.295 37.054 37.054 0 0 1 2.075 2.656l5.851 13.051c.49 2.238.749 4.385.749 6.379v34.029l-9.284 83.141h-8.597l5.307-95.689-17.069-58.329a163.399 163.399 0 0 0 8.904 5.194zm30.381-199.655a43.506 43.506 0 0 1 6.858-3.862c6.701-3.021 14.82-1.613 20.134-.056-2.364 5.017-6.7 12.047-13.372 15.053-4.881 2.201-9.854 3.445-14.205 3.573l.951-8.346.04-.569a30.357 30.357 0 0 0-.406-5.793zm-34.968 67.724h-8.094c-4.162 0-8.571-2.731-12.161-7.502 1.656-7.394 8.26-12.939 16.146-12.939 7.93 0 14.568 5.607 16.177 13.063-3.271 4.31-7.587 7.378-12.068 7.378zm-25.89-74.534a16.858 16.858 0 0 1 12.202-5.166h19.077c4.623 0 8.945 1.823 12.171 5.134a16.858 16.858 0 0 1 4.823 12.038l-4.444 38.988c-5.417-6.07-13.292-9.902-22.049-9.902-8.714 0-16.557 3.793-21.971 9.812l-4.601-38.81a16.857 16.857 0 0 1 4.792-12.094z"/>
</svg>
