<svg id="whale" xmlns="http://www.w3.org/2000/svg" width="300" height="300" viewBox="0 0 300 300">
  <g fill="none" stroke="#000" stroke-linecap="round" stroke-linejoin="round" stroke-miterlimit="10" clip-rule="evenodd">
    <path stroke-width="7.733" d="M151.841 148.379c-6.192-6.316-17.26-14.988-34.13-19.25-28.32-7.156-51.572-48.164-41.19-73.262 0 0 10.696 9.729 42.555 11.293 31.859 1.563 34.89 33.154 34.89 33.154l3.637 50.075"/>
    <path stroke-width="7.733" d="M155.705 148.848c6.098-6.348 17.294-15.35 34.585-19.719 28.32-7.156 51.572-48.164 41.19-73.262 0 0-10.696 9.729-42.555 11.293-31.859 1.563-34.89 33.154-34.89 33.154l-3.645 50.183"/>
    <path stroke-width="8" d="M26 211.867v-64l19.169 14.376c7.086 5.315 18.223 4.906 24.883-.922l7.896-6.909c6.656-5.824 17.444-5.828 24.104 0l7.896 6.909c6.656 5.824 17.444 5.828 24.104 0l7.896-6.909c6.656-5.824 17.444-5.828 24.104 0l7.896 6.909c6.656 5.824 17.444 5.828 24.104 0l7.896-6.909c6.656-5.824 17.444-5.828 24.104 0l7.896 6.909c6.656 5.824 17.773 6.255 24.883.922L282 147.867v64"/>
    <path stroke-width="8" d="M26 187.867l19.169 14.376c7.086 5.315 18.223 4.906 24.883-.922l7.896-6.909c6.656-5.824 17.444-5.828 24.104 0l7.896 6.909c6.656 5.824 17.444 5.828 24.104 0l7.896-6.909c6.656-5.824 17.444-5.828 24.104 0l7.896 6.909c6.656 5.824 17.444 5.828 24.104 0l7.896-6.909c6.656-5.824 17.444-5.828 24.104 0l7.896 6.909c6.656 5.824 17.773 6.255 24.883.922L282 187.867v64H26v-64z"/>
  </g>
</svg>
