<svg id="year" xmlns="http://www.w3.org/2000/svg" width="64" height="64" viewBox="0 0 64 64">
  <path fill="#fff" d="M40.844 35.551L28.449 23.156l14.648-2.254-2.253 14.649zM30.551 23.844l9.605 9.605 1.746-11.352-11.351 1.747z"/>
  <g fill="#fff">
    <path d="M19.646 47.646L8.293 59h1.414l10.647-10.646zM18.146 46.146L5.293 59h1.414l12.147-12.146z"/>
  </g>
  <path fill="#fff" d="M22.5 51.207L12.793 41.5 30.5 23.793l9.707 9.707L22.5 51.207zM14.207 41.5l8.293 8.293L38.793 33.5 30.5 25.207 14.207 41.5zM32.923 19.45a.494.494 0 0 1-.147-.347.504.504 0 0 1 .493-.508c.284 0 .503.233.51.495a.503.503 0 0 1-.856.36zM22.394 15.992a.502.502 0 0 1 .864-.51.498.498 0 0 1-.177.687.502.502 0 0 1-.601-.077.548.548 0 0 1-.086-.1zm1.79-.87a.497.497 0 0 1 .388-.587.49.49 0 0 1 .588.391.49.49 0 0 1-.39.586.463.463 0 0 1-.444-.135.463.463 0 0 1-.142-.255zm1.972-.218a.499.499 0 0 1 .565-.426.5.5 0 0 1 .425.566.498.498 0 0 1-.566.424.503.503 0 0 1-.424-.564zm1.945.417a.502.502 0 0 1 .657-.263.505.505 0 0 1 .263.657.505.505 0 0 1-.658.263.57.57 0 0 1-.155-.113.49.49 0 0 1-.107-.544zm1.789.869a.499.499 0 1 1 .834.55.495.495 0 0 1-.693.143.5.5 0 0 1-.141-.693zm1.619 1.167a.494.494 0 0 1 .7-.049.489.489 0 0 1 .042.706.502.502 0 0 1-.707.043l-.021-.021a.493.493 0 0 1-.014-.679zM20.902 17.329a.51.51 0 0 1-.148-.361c0-.127.057-.254.148-.346a.467.467 0 0 1 .354-.141.51.51 0 0 1 .502.486.511.511 0 0 1-.148.361.47.47 0 0 1-.354.141.462.462 0 0 1-.354-.14zM35.752 16.622a.498.498 0 0 1 .346-.855c.29.006.503.233.51.494a.5.5 0 0 1-.856.361zM25.428 6.313a.493.493 0 0 1 .297-.637c.254-.1.545.036.644.29a.505.505 0 1 1-.828.531.486.486 0 0 1-.113-.184zm9.623 8.181a.502.502 0 0 1 .312-.637.5.5 0 1 1 .325.948.504.504 0 0 1-.516-.12.448.448 0 0 1-.121-.191zm-7.679-8.712a.506.506 0 0 1 .517-.488.49.49 0 0 1 .487.503.5.5 0 0 1-.509.493.52.52 0 0 1-.347-.147.513.513 0 0 1-.148-.361zm6.958 6.859a.52.52 0 0 1 .27-.664.495.495 0 0 1 .649.269.497.497 0 0 1-.262.658.5.5 0 0 1-.544-.107.618.618 0 0 1-.113-.156zm-.862-1.782a.5.5 0 0 1 .205-.672.488.488 0 0 1 .678.198.49.49 0 0 1-.204.671.506.506 0 0 1-.595-.084.664.664 0 0 1-.084-.113zm-4.087-4.823a.504.504 0 0 1 .665-.239.5.5 0 0 1-.425.905.52.52 0 0 1-.141-.1.481.481 0 0 1-.099-.566zm3.048 3.161a.49.49 0 0 1 .113-.693.501.501 0 0 1 .7.106.492.492 0 0 1-.114.692.492.492 0 0 1-.649-.042c-.015-.013-.03-.041-.05-.063zm-1.302-2.149a.493.493 0 0 1 .706-.028c.213.184.22.501.029.707a.509.509 0 0 1-.707.029l-.015-.015a.497.497 0 0 1-.013-.693zM23.73 7.43a.472.472 0 0 1-.141-.354.496.496 0 0 1 .487-.502.512.512 0 0 1 .51.494.507.507 0 0 1-.148.361.474.474 0 0 1-.354.141.473.473 0 0 1-.354-.14z"/>
  <g>
    <path fill="#fff" d="M15.005 19.097l1.747-.481c1.336-.369 1.531-.565 1.9-1.9l.482-1.744.481 1.744c.201.727.361 1.082.59 1.311.229.229.584.39 1.311.59l1.747.481-1.747.482c-1.335.369-1.531.564-1.9 1.9l-.481 1.744-.482-1.744c-.201-.728-.361-1.082-.59-1.311-.229-.229-.584-.39-1.311-.59l-1.747-.482zm3.765.365c.143.142.262.301.365.48.211-.372.474-.634.844-.845a2.262 2.262 0 0 1-.844-.846 2.153 2.153 0 0 1-.845.845c.179.103.338.223.48.366z"/>
  </g>
  <g>
    <path fill="#fff" d="M17.834 9.197l1.746-.481c1.336-.369 1.532-.565 1.9-1.9l.482-1.744.482 1.744c.2.727.36 1.082.589 1.311.229.229.585.39 1.312.59l1.746.481-1.745.482c-1.336.369-1.532.564-1.9 1.9l-.482 1.744-.484-1.744c-.2-.728-.36-1.082-.589-1.311-.229-.229-.585-.39-1.312-.59l-1.745-.482zm3.765.366c.142.142.261.301.364.48a2.14 2.14 0 0 1 .845-.845 2.272 2.272 0 0 1-.845-.846 2.146 2.146 0 0 1-.845.845c.179.103.338.223.481.366z"/>
  </g>
  <g>
    <path fill="#fff" d="M44.651 31.179a.471.471 0 0 1-.142-.354.465.465 0 0 1 .142-.353.5.5 0 0 1 .848.353.495.495 0 0 1-.848.354zM47.933 41.021a.496.496 0 1 1 .856.502.508.508 0 0 1-.68.184c-.042-.028-.07-.057-.099-.085a.499.499 0 0 1-.077-.601zm.656-1.689a.484.484 0 0 1 .587-.39c.27.043.446.317.39.587a.497.497 0 0 1-.586.389.472.472 0 0 1-.255-.142.465.465 0 0 1-.136-.444zm.043-1.811a.499.499 0 0 1 .425-.566.496.496 0 0 1 .565.424.506.506 0 0 1-.425.566.506.506 0 0 1-.424-.142.465.465 0 0 1-.141-.282zm-.509-1.782a.513.513 0 0 1 .269-.665c.255-.1.544.021.65.269a.499.499 0 1 1-.814.545.596.596 0 0 1-.105-.149zm-.906-1.669a.5.5 0 1 1 .835-.551.508.508 0 0 1-.141.693.503.503 0 0 1-.63-.063c-.021-.022-.05-.05-.064-.079zm-1.18-1.519l.007.007a.518.518 0 0 1 .035-.715.501.501 0 0 1 .707.043l.007.007a.492.492 0 0 1-.049.699.496.496 0 0 1-.687-.021l-.02-.02zM46.772 43.199a.501.501 0 0 1-.148-.348.506.506 0 0 1 .494-.507c.27 0 .51.24.502.502a.494.494 0 0 1-.848.353zM47.479 28.351a.515.515 0 0 1-.148-.361c0-.113.05-.247.148-.347a.47.47 0 0 1 .353-.141.51.51 0 0 1 .503.487.507.507 0 0 1-.148.361.469.469 0 0 1-.354.141.473.473 0 0 1-.354-.14zM57.492 38.037a.49.49 0 0 1 .637-.297.49.49 0 0 1 .297.637.49.49 0 0 1-.637.297.532.532 0 0 1-.185-.113.495.495 0 0 1-.112-.524zm-8.195-9.623a.5.5 0 0 1 .636-.312.5.5 0 1 1-.325.949.438.438 0 0 1-.19-.121.5.5 0 0 1-.121-.516zm8.514 7.82a.493.493 0 0 1 .494-.509.49.49 0 0 1 .502.487.505.505 0 0 1-.487.517.511.511 0 0 1-.361-.148.512.512 0 0 1-.148-.347zm-6.613-7.12c.106-.262.403-.376.658-.262a.495.495 0 0 1 .261.657.512.512 0 0 1-.657.261.586.586 0 0 1-.155-.112.489.489 0 0 1-.107-.544zm1.839.833a.506.506 0 0 1 .679-.197c.248.135.34.439.198.679a.5.5 0 0 1-.672.205c-.042-.028-.085-.056-.113-.084a.518.518 0 0 1-.092-.603zm4.362 4.533a.498.498 0 0 1 .241-.665.505.505 0 0 1 .664.24.509.509 0 0 1-.239.665.499.499 0 0 1-.566-.1.475.475 0 0 1-.1-.14zm-2.608-3.514a.512.512 0 0 1 .7-.106.505.505 0 0 1 .106.7.49.49 0 0 1-.693.113c-.021-.021-.049-.035-.063-.05a.512.512 0 0 1-.05-.657zm1.555 1.98a.503.503 0 0 1 .029-.707.501.501 0 0 1 .679.735.514.514 0 0 1-.7-.021l-.008-.007zM56.672 40.371a.479.479 0 0 1-.142-.354.496.496 0 0 1 .488-.501.512.512 0 0 1 .51.494.505.505 0 0 1-.148.361.469.469 0 0 1-.354.141.47.47 0 0 1-.354-.141z"/>
    <g>
      <path fill="#fff" d="M45.005 49.097l-.482-1.747c-.2-.727-.36-1.081-.59-1.311-.229-.229-.583-.389-1.311-.59l-1.745-.482 1.745-.481c1.336-.369 1.531-.565 1.9-1.9l.482-1.747.481 1.747c.2.727.36 1.081.59 1.311.229.229.584.389 1.311.59l1.745.482-1.745.481c-1.335.369-1.531.564-1.9 1.9l-.481 1.747zm0-4.974c-.212.37-.475.632-.846.844.359.207.639.487.846.844.212-.369.474-.632.844-.844a2.257 2.257 0 0 1-.844-.844z"/>
    </g>
    <g>
      <path fill="#fff" d="M54.904 46.269l-.482-1.747c-.2-.727-.36-1.082-.59-1.311-.229-.229-.583-.39-1.311-.59l-1.745-.483 1.745-.481c1.336-.368 1.532-.564 1.9-1.9l.482-1.746.481 1.746c.2.727.36 1.082.59 1.312.229.229.584.389 1.311.589l1.745.483-1.745.481c-1.335.368-1.531.564-1.9 1.9l-.481 1.747zm0-4.974a2.172 2.172 0 0 1-.846.844c.359.207.639.487.846.844a2.19 2.19 0 0 1 .844-.845 2.254 2.254 0 0 1-.844-.843z"/>
    </g>
  </g>
  <g>
    <path fill="#fff" d="M32 41.707V25.293l4 4v8.414l-4 4zm1-14v11.586l2-2v-7.586l-2-2z"/>
  </g>
  <g>
    <path fill="#fff" d="M24 49.707V30.293l4-4v19.414l-4 4zm1-19v16.586l2-2V28.707l-2 2z"/>
  </g>
  <g>
    <path fill="#fff" d="M20 48.707l-4-4v-6.414l4-4v14.414zm-3-4.414l2 2v-9.586l-2 2v5.586z"/>
  </g>
  <g>
    <path fill="#fff" d="M11.625 47.565c-1.347 0-2.7-.479-3.777-1.453a4.569 4.569 0 0 1-1.504-3.179 4.564 4.564 0 0 1 1.185-3.312.5.5 0 0 1 .74.672 3.573 3.573 0 0 0-.926 2.59c.047.96.465 1.843 1.177 2.486a4.626 4.626 0 0 0 6.523-.32l.752-.753a.5.5 0 0 1 .707.707l-.735.735a5.568 5.568 0 0 1-4.142 1.827z"/>
  </g>
  <g>
    <path fill="#fff" d="M9.154 42.771l-.384-.924c.243-.101.461-.247.646-.434l.709.705c-.279.28-.606.5-.971.653zm1.62-1.626l-.926-.379c.101-.245.152-.502.152-.766l.886-.026.113.001c.001.42-.075.805-.225 1.17zM5 40.015V40c0-.39.074-.771.221-1.131l.926.377A1.997 1.997 0 0 0 6 40l-1 .015zm4.84-.801a2.006 2.006 0 0 0-.439-.642l.699-.715c.284.278.507.604.66.966l-.92.391zm-3.266-.617l-.711-.703c.278-.281.603-.503.966-.656l.391.92c-.242.102-.459.25-.646.439zm2.175-.452A1.993 1.993 0 0 0 8 38l-.021-1H8c.387 0 .765.073 1.122.217l-.373.928z"/>
  </g>
  <g>
    <path fill="#fff" d="M49.475 20.15l-.259-.966 9.893-2.65.259.966zM49.215 23.818l.258-.966 9.892 2.65-.259.966zM37.532 4.892l.966-.258 2.65 9.892-.966.26zM46.501 4.632l.966.26-2.65 9.89-.966-.258zM54.4 8.893l.706.707-7.242 7.242-.707-.707z"/>
  </g>
</svg>
